<?xml version="1.0" standalone="no"?>
<!DOCTYPE svg PUBLIC "-//W3C//DTD SVG 1.1//EN" "http://www.w3.org/Graphics/SVG/1.1/DTD/svg11.dtd" >
<svg xmlns="http://www.w3.org/2000/svg">
<metadata>Generated by IcoMoon</metadata>
<defs>
<font id="icomoon" horiz-adv-x="1024">
<font-face units-per-em="1024" ascent="960" descent="-64" />
<missing-glyph horiz-adv-x="1024" />
<glyph unicode="&#x20;" horiz-adv-x="512" d="" />
<glyph unicode="&#xe900;" glyph-name="icons_apply_01" d="M48.516-64h703.218c8.834 0 16.267 7.718 16.267 16.551v926.969c-0.001 8.833-7.434 15.626-16.268 15.626h-160.089v48.302c0 8.834-6.882 15.413-15.715 15.413h-351.61c-8.834 0-16.106-6.58-16.106-15.413v-48.302h-159.697c-8.834 0-15.52-6.794-15.52-15.626v-926.969c0-8.834 6.687-16.551 15.52-16.551zM64.853-31.004v31.858h671.289v-31.858h-671.289zM240.071 927.004h319.716v-127.431h-319.716v127.431zM208.213 863.289v-79.663c0-8.834 7.273-15.911 16.106-15.911h351.609c8.834 0 15.716 7.078 15.716 15.911v79.663h144.498v-830.578h-671.289v830.578h143.36zM128.427 96.427h543.396c8.834 0 16.533 7.113 16.533 15.947v703.217c0 8.834-7.7 15.84-16.533 15.84h-48.32v-31.858h31.858v-671.289h-510.862v671.289h31.858v31.858h-47.929c-8.834 0-15.787-7.006-15.787-15.84v-703.218c0-8.833 6.953-15.946 15.787-15.946zM496.071 863.289h-192.284v31.858h-31.858v-47.591c0-8.834 7.487-16.125 16.32-16.125h223.751c8.834 0 15.929 7.291 15.929 16.125v47.591h-31.858v-31.858zM432.356 704h159.289v-31.858h-159.289v31.858zM208.213 624.356h383.431v-32.996h-383.431v32.996zM208.213 559.502h383.431v-31.858h-383.431v31.858zM208.213 495.787h383.431v-31.858h-383.431v31.858zM208.213 432.071h383.431v-31.858h-383.431v31.858zM208.213 368.356h383.431v-31.858h-383.431v31.858zM208.213 304.64h224.142v-32.996h-224.142v32.996zM895.431 320.569h31.858v-31.858h-31.858v31.858zM895.431 255.716h31.858v-31.858h-31.858v31.858zM895.431 192h31.858v-31.858h-31.858v31.858zM863.573 943.449v-48.302h-15.947c-8.834 0-15.911-6.794-15.911-15.626v-799.111c0-2.481 0.542-4.932 1.651-7.149l63.911-127.858c2.716-5.415 8.232-8.834 14.287-8.834s11.576 3.419 14.292 8.834l63.695 127.858c1.109 2.216 1.453 4.667 1.453 7.149v799.111c0 8.833-6.687 15.626-15.52 15.626h-16.337v48.302c0 8.834-6.794 15.413-15.626 15.413h-63.929c-8.834 0-16.018-6.58-16.018-15.413zM959.147 863.289v-447.147h-95.573v447.147h95.573zM863.573 96.427v287.858h95.573v-287.858h-95.573zM911.556-11.566l-38.068 76.134h76.134l-38.067-76.134zM927.289 927.004v-31.858h-31.858v31.858h31.858z" />
<glyph unicode="&#xe901;" glyph-name="icons_apply_02" d="M895.572 511.928h-31.964v297.043l-118.494 118.494h-584.722v-415.537h-31.965v447.502h629.923l137.222-137.222zM96.463 80.41h-31.964v45.356l-63.109 189.319c-1.109 3.317-1.093 6.906 0.039 10.216l49.070 143.84c1.209 3.542 3.622 6.547 6.813 8.498l78.788 47.947 16.622-27.313-73.84-44.934-45.466-133.26 62.226-186.667c0.546-1.63 0.82-3.341 0.82-5.056v-47.946zM288.249 64.428h-31.965v206.012l-31.965 145.596v95.893c0 18.222-13.095 31.965-30.465 31.965-18.136 0-33.463-14.64-33.463-31.965l-0.165-130.121-15.982-111.875-31.635 4.526 15.817 110.751v126.719c0 34.658 29.959 63.928 65.428 63.928 35.007 0 62.43-28.077 62.43-63.928v-94.136l31.965-145.596v-207.768zM320.214-63.43h-31.965v127.858h-223.75v-127.858h-31.965v143.84c0 8.826 7.157 15.982 15.982 15.982h255.714c8.826 0 15.982-7.157 15.982-15.982v-143.84zM224.321 32.463h31.965v-31.965h-31.965v31.965zM959.502 80.41h-31.965v47.947c0 1.717 0.273 3.427 0.82 5.056l62.226 186.666-45.464 133.258-73.84 44.934 16.622 27.313 78.788-47.947c3.191-1.951 5.604-4.956 6.813-8.498l49.070-143.84c1.132-3.31 1.148-6.899 0.039-10.216l-63.109-189.321v-45.353zM767.716 80.41h-31.965l0.382 195.251 31.582 142.131v94.136c0 35.851 27.423 63.928 62.431 63.928 35.468 0 65.427-29.272 65.427-63.928v-126.718l15.817-110.751-31.635-4.526-16.146 114.138v127.857c0 17.325-15.327 31.965-33.462 31.965-17.373 0-30.466-13.743-30.466-31.965l-0.382-99.358-31.582-142.131v-190.029zM767.716 32.463h31.965v-31.965h-31.965v31.965zM975.483-63.43h-31.965v127.858h-207.767v-127.858h-31.965v127.858c0 17.629 14.336 31.965 31.965 31.965h207.768c17.629 0 31.965-14.336 31.965-31.965v-127.858zM879.59 799.607h-143.839v143.84h31.965v-111.875h111.874zM224.321 863.537h31.965v-31.965h-31.965v31.965zM288.249 863.537h31.965v-31.965h-31.965v31.965zM352.179 863.537h31.965v-31.965h-31.965v31.965zM224.321 767.644h447.501v-31.965h-447.501v31.965zM224.321 703.714h575.358v-31.965h-575.358v31.965zM224.321 639.786h575.358v-31.965h-575.358v31.965zM591.911 543.893h31.965v-351.607h-31.965v351.607zM655.84 479.965h31.965v-287.679h-31.965v287.679zM527.982 448h31.965v-255.714h-31.965v255.714zM464.054 511.928h31.965v-319.644h-31.965v319.644zM336.196 479.965h31.965v-287.679h-31.965v287.679zM336.196 160.321h31.965v-31.965h-31.965v31.965zM400.125 416.035h31.965v-223.751h-31.965v223.751zM400.125 160.321h31.965v-31.965h-31.965v31.965zM464.054 160.321h31.965v-31.965h-31.965v31.965zM527.982 160.321h31.965v-31.965h-31.965v31.965zM591.911 160.321h31.965v-31.965h-31.965v31.965zM655.84 160.321h31.965v-31.965h-31.965v31.965z" />
<glyph unicode="&#xe902;" glyph-name="icons_apply_03" d="M639.431 96.427h-494.933v830.578h607.573v-367.502h31.858v399.36h-671.289v-894.293h526.791zM736.142 32.711h31.858v-31.858h-31.858v31.858zM974.484 267.608c0.438 1.484 0.592 3.028 0.592 4.589v143.839c0 26.44-21.303 47.947-47.742 47.947-6.227 0-12.088-1.201-17.566-3.37-5.54 20.336-24.139 35.335-46.21 35.335-12.269 0-23.447-4.635-31.939-12.236-12.799 11.456-33.34 15.295-49.621 8.866-5.54 20.336-23.908 35.335-45.979 35.335-26.44 0-47.665-21.507-47.665-47.947v-25.358l-38.987 38.719c24.47 37.573 38.574 82.39 38.574 130.479 0 132.197-107.605 239.733-239.803 239.733s-239.767-107.536-239.767-239.733 107.519-239.733 239.716-239.733c48.088 0 92.71 14.24 130.282 38.711l45.132-45.328v-109.036l34.086-67.301 46.697-62.102v-42.625c-18.204 0-32.996-14.344-32.996-31.965v-128.427h32.996v128.569h223.004v-128.569h31.858v128.427c0 17.621-13.653 31.965-31.858 31.965v13.641l47.195 157.575zM240.302 623.805c0 114.561 93.208 207.768 207.768 207.768s207.768-93.208 207.768-207.768c0-53.047-19.994-101.506-52.83-138.262-13.476 49.933-52.24 81.766-82.924 97.39 14.99 21.007 23.877 49.104 23.877 80.827 0 48.368-10.893 103.885-95.893 103.885s-95.893-55.516-95.893-103.885c0-31.722 8.888-59.82 23.877-80.827-30.684-15.624-69.447-47.458-82.922-97.39-32.834 36.756-52.829 85.215-52.829 138.262zM384.142 663.76c0 54.438 15.53 71.92 63.929 71.92s63.929-17.482 63.929-71.92c0-42.609-22.412-87.902-63.929-87.902s-63.929 45.294-63.929 87.902zM320.779 459.715c6.216 63.887 62.322 91.955 79.519 99.106 13.905-9.558 30.136-14.928 47.773-14.928 17.632 0 33.861 5.367 47.764 14.922 17.233-7.16 73.313-35.229 79.527-99.1-35.19-27.36-79.369-43.679-127.291-43.679s-92.102 16.319-127.292 43.679zM629.984 467.511l58.371-58.109v-50.678l-83.58 83.44c9.064 7.81 17.399 16.284 25.209 25.346zM896.023 116.962c-0.438-1.484-0.592-3.028-0.592-4.589v-15.947h-159.289v53.233l-50.707 67.050-30.075 59.262v69.518l36.887-36.647c4.589-4.589 11.782-5.979 17.76-3.465 5.977 2.466 10.207 8.302 10.207 14.765v159.82c0 8.819 7.11 15.982 15.929 15.982s15.929-7.163 15.929-15.982v-111.609h31.858v79.644c0 8.819 7.11 15.982 15.929 15.982s15.929-7.163 15.929-15.982v-79.644h31.858v79.644c0 8.819 7.11 15.982 15.929 15.982s15.929-7.163 15.929-15.982v-79.644h31.858v47.68c0 8.819 7.11 15.982 15.929 15.982s15.929-7.163 15.929-15.982v-141.499l-47.195-157.574zM208.213 320.569h127.431v-31.858h-127.431v31.858zM208.213 255.716h224.142v-31.858h-224.142v31.858zM208.213 192h383.431v-31.858h-383.431v31.858zM368.64 320.569h223.004v-31.858h-223.004v31.858zM464.213 255.716h127.431v-31.858h-127.431v31.858zM48.924 895.147v-894.293h558.649v31.858h-526.791v862.436z" />
<glyph unicode="&#xe903;" glyph-name="icons_apply_04" d="M591.911 958.862h-335.626c-17.621 0-32.142-13.767-32.142-31.396v-511.431c0-17.628 14.521-31.751 32.142-31.751h265.697c16.158-64.853 51.458-144.053 101.52-144.053v31.965c-35.271 0-79.724 119.171-79.724 175.805 0 4.237-1.593 8.302-4.59 11.299l-110.565 110.611c-3.901 6.477-21.422 38.387-1.24 58.576 20.243 20.243 52.002 2.732 58.588-1.264l142.582-142.576 22.415 22.599-27.466 27.282v182.66c45.511-40.897 112.64-114.093 112.64-173.295v-142.396l-31.646-174.392c-0.171-0.944-0.212-1.896-0.212-2.856v-95.965h-240.071v64c0 3.63-1.313 7.309-3.576 10.141-0.609 0.758-60.513 76.046-60.513 150.001h-31.965c0-75.093 49.405-146.821 64.196-165.558v-58.584h-16.249c-8.834 0-15.609-7.078-15.609-15.911v-176.374h31.858v160.427h303.787v-160.427h31.858v176.374c0 8.834-7.433 15.911-16.267 15.911h-15.591v94.521l31.645 174.392c0.171 0.944 0.213 1.896 0.213 2.856v143.84c0 91.778-116.053 191.995-144.498 215.435v168.139c0 17.629-13.971 31.396-31.592 31.396zM256 927.004h63.716v-510.862h-63.716v510.862zM507.184 651.087c-0.749 0.75-1.494 1.413-2.368 1.998-20.383 13.578-67.438 30.622-100.043-1.998-32.62-32.612-15.545-79.724-1.981-100.076 0.577-0.874 1.256-1.693 2.006-2.434l107.415-107.358c0.413-7.113 1.428-15.973 3.012-25.075h-162.514v510.861h238.933v-360.512l-84.461 84.594zM384.569 895.147h31.858v-191.147h-31.858v191.147zM464.213 64.569h31.858v-31.858h-31.858v31.858zM464.213 0.853h31.858v-31.858h-31.858v31.858zM448.284 895.147h31.858v-63.716h-31.858v63.716zM448.284 799.573h31.858v-31.858h-31.858v31.858zM655.36 799.573h271.929v-735.147c0-17.621-14.095-31.716-31.716-31.716h-95.716v-31.858h95.716c35.259 0 63.573 28.315 63.573 63.573v767.147c0 35.251-28.315 63.573-63.573 63.573h-240.213v-31.858h240.213c17.621 0 31.965-13.653 31.965-31.858h-272.178v-31.858zM368.64 96.427h-271.929v735.147c0 17.629 14.095 31.716 31.716 31.716h63.858v31.858h-63.858c-35.259 0-63.573-28.323-63.573-63.573v-767.147c0-35.259 28.315-63.573 63.573-63.573h240.213v31.858h-240.213c-17.621 0-31.965 13.653-31.965 31.858h272.178v31.858z" />
<glyph unicode="&#xe904;" glyph-name="icons_benefits_01" d="M261.178 82.773h501.644c6.301 0 10.867 5.732 10.867 12.027v45.604c0 6.295-4.566 11.774-10.867 11.774h-56.262v45.231c0 164.24-119.467 231.872-149.049 246.775v8.095c29.582 14.903 149.049 82.534 149.049 246.775v44.767h56.262c6.301 0 10.867 5.94 10.867 12.237v45.604c0 6.295-4.566 10.427-10.867 10.427h-501.644c-6.295 0-10.867-4.13-10.867-10.427v-45.604c0-6.295 4.572-12.237 10.867-12.237h56.262v-44.768c0-164.24 119.467-231.872 149.049-246.775v-8.095c-29.582-14.903-149.049-82.534-149.049-246.775v-45.231h-56.262c-6.295 0-10.867-5.477-10.867-11.774v-45.604c0-6.294 4.572-12.026 10.867-12.026zM273.067 789.333h477.867v-22.756h-477.867v22.756zM682.667 743.822v-44.768c0-21.212-1.884-40.633-5.498-58.394l-165.257-66.138-164.988 66.084c-3.699 17.794-5.592 37.235-5.592 58.448v44.768h341.334zM481.933 426.198l7.311 2.833v38.434l-7.333 2.811c-1.141 0.438-92.996 37.077-127.77 142.83l157.863-63.146 158.17 63.268c-33.878-105.049-123.442-141.153-128.104-142.965l-7.317-2.833v-38.434l7.326-2.811c1.378-0.527 133.831-53.364 140.644-215.694-32.752 46.471-96.992 78.126-170.733 78.126-73.745 0-137.981-31.659-170.73-78.136 6.623 161.74 135.066 213.537 140.671 215.717zM682.28 152.178h-340.56c7.995 62.578 81.306 113.832 170.28 113.832 88.979 0 162.285-51.255 170.28-113.832zM273.067 128.284h477.867v-22.756h-477.867v22.756zM500.622 425.244h22.756v-23.893h-22.756v23.893zM500.622 379.733h22.756v-22.756h-22.756v22.756zM500.622 334.222h22.756v-23.893h-22.756v23.893zM750.933 174.933v182.395c13.653 0 22.756 9.923 22.756 22.497v136.812c0 12.576-9.102 22.497-22.756 22.497v181.932h-21.618v-181.932c-13.653 0-22.756-9.923-22.756-22.497v-136.812c0-12.575 9.102-22.497 22.756-22.497v-182.395h21.618zM751.444 379.733h-22.129v136.533h22.106l0.023-136.533zM273.067 356.518v-181.585h21.618v181.587c13.653 0.089 22.756 10.26 22.756 22.798v137.015c0 12.538-9.102 22.709-22.756 22.798v181.936h-21.618v-181.933c-13.653-0.034-22.756-10.229-22.756-22.8v-137.015c0-12.572 9.102-22.767 22.756-22.801zM273.067 516.267h22.314l0.017-136.533h-22.331v136.533zM512.828-32.443c-265.084 0-480.746 215.511-480.746 480.577s215.662 480.377 480.746 480.377c251.105 0 457.857-193.791 478.965-439.551h30.773c-4.343 54.613-17.245 107.485-38.538 157.821-25.758 60.895-62.629 115.714-109.591 162.672s-101.649 83.893-162.547 109.649c-63.057 26.67-130.031 40.226-199.062 40.226s-136.005-13.505-199.063-40.175c-60.898-25.756-115.587-62.616-162.547-109.574s-83.833-101.639-109.591-162.533c-26.671-63.053-40.194-130.022-40.194-199.049s13.524-135.995 40.194-199.049c25.758-60.894 62.629-115.579 109.591-162.536 46.961-46.957 101.649-83.826 162.547-109.582 63.057-26.668 130.032-40.191 199.063-40.191s136.005 13.522 199.063 40.191c60.898 25.757 115.587 62.624 162.547 109.583 46.961 46.957 83.833 101.912 109.591 162.805 21.291 50.336 34.195 103.208 38.538 157.821h-30.773c-21.109-245.76-227.86-439.483-478.966-439.483z" />
<glyph unicode="&#xe905;" glyph-name="icons_benefits_02" d="M741.118 556.642c-41.803 88.007-131.741 144.874-229.118 144.874s-187.315-56.867-229.118-144.874l-22.9 10.881c45.98 96.795 144.905 159.345 252.018 159.345s206.038-62.55 252.018-159.345l-22.9-10.881zM512 169.132c-107.083 0-206.001 62.524-252.006 159.296l22.901 10.881c41.828-87.974 131.752-144.824 229.105-144.824 97.377 0 187.315 56.867 229.118 144.874l22.9-10.881c-45.98-96.795-144.905-159.346-252.018-159.346zM722.068 146.306l-14.509 20.796c91.849 64.066 146.688 169.075 146.688 280.898 0 176.639-131.363 323.802-305.557 342.315l2.675 25.214c187.122-19.892 328.234-177.894 328.234-367.53 0-120.105-58.893-232.887-157.531-301.694zM472.635 80.469c-187.122 19.893-328.234 177.895-328.234 367.531 0 120.117 58.891 232.899 157.531 301.707l14.509-20.797c-91.849-64.066-146.688-169.073-146.688-280.909 0-176.639 131.363-323.802 305.557-342.315l-2.675-25.215zM512 752.219c-27.957 0-50.703 22.745-50.703 50.703s22.745 50.704 50.703 50.704 50.703-22.745 50.703-50.703-22.745-50.704-50.703-50.704zM512 828.275c-13.981 0-25.352-11.37-25.352-25.352s11.37-25.352 25.352-25.352 25.352 11.37 25.352 25.352-11.371 25.352-25.352 25.352zM512 42.374c-27.957 0-50.703 22.745-50.703 50.703s22.745 50.704 50.703 50.704 50.703-22.745 50.703-50.703-22.745-50.704-50.703-50.704zM512 118.429c-13.981 0-25.352-11.37-25.352-25.352s11.37-25.352 25.352-25.352 25.352 11.37 25.352 25.352c0 13.981-11.371 25.352-25.352 25.352zM283.836 460.676h456.33v-25.352h-456.33v25.352zM512 574.759c-77.274 0-149.164 18.63-197.237 51.118l14.199 21.007c43.982-29.729 110.697-46.774 183.038-46.774s139.056 17.045 183.038 46.773l14.199-21.007c-48.073-32.488-119.963-51.117-197.237-51.117zM695.038 249.118c-43.982 29.728-110.697 46.773-183.038 46.773s-139.056-17.045-183.038-46.773l-14.199 21.007c48.073 32.488 119.963 51.118 197.237 51.118s149.164-18.63 197.237-51.118l-14.199-21.007zM245.808 397.297c-27.957 0-50.703 22.745-50.703 50.703s22.745 50.703 50.703 50.703 50.703-22.745 50.703-50.703-22.745-50.703-50.703-50.703zM245.808 473.352c-13.981 0-25.352-11.37-25.352-25.352s11.37-25.352 25.352-25.352 25.352 11.37 25.352 25.352-11.371 25.352-25.352 25.352zM778.192 397.297c-27.957 0-50.703 22.745-50.703 50.703s22.745 50.703 50.703 50.703 50.703-22.745 50.703-50.703-22.745-50.703-50.703-50.703zM778.192 473.352c-13.981 0-25.352-11.37-25.352-25.352s11.37-25.352 25.352-25.352c13.981 0 25.352 11.37 25.352 25.352s-11.371 25.352-25.352 25.352zM512 169.132c-65.867 0-101.407 143.681-101.407 278.868s35.54 278.868 101.407 278.868 101.407-143.681 101.407-278.868-35.54-278.868-101.407-278.868zM512 701.516c-35.904 0-76.055-108.419-76.055-253.516s40.151-253.516 76.055-253.516 76.055 108.419 76.055 253.516-40.151 253.516-76.055 253.516zM512.828-32.443c-265.084 0-480.746 215.512-480.746 480.577s215.662 480.377 480.746 480.377c251.105 0 457.857-193.791 478.965-439.551h30.775c-4.343 54.613-17.245 107.486-38.538 157.822-25.758 60.895-62.629 115.714-109.591 162.672s-101.649 83.893-162.547 109.65c-63.058 26.668-130.032 40.224-199.063 40.224s-136.005-13.505-199.063-40.175c-60.898-25.756-115.587-62.616-162.547-109.574s-83.833-101.639-109.591-162.533c-26.671-63.053-40.194-130.021-40.194-199.047s13.524-135.995 40.194-199.049c25.758-60.894 62.629-115.579 109.591-162.536 46.961-46.957 101.649-83.826 162.547-109.582 63.057-26.668 130.032-40.191 199.063-40.191s136.005 13.522 199.062 40.191c60.898 25.757 115.587 62.624 162.547 109.583 46.961 46.957 83.833 101.911 109.591 162.805 21.292 50.335 34.196 103.207 38.539 157.82h-30.775c-21.108-245.76-227.859-439.483-478.965-439.483z" />
<glyph unicode="&#xe906;" glyph-name="icons_benefits_03" d="M512.875 844.677l13.082-41.064 41.259-0.050-33.149-25.733 12.694-41.199-33.601 25.171-33.423-25.396 12.435 41.289-33.328 25.482 41.241 0.333 12.79 41.167zM512.875 865.198c-0.025 0-0.049 0-0.074 0-8.961-0.032-16.865-5.875-19.523-14.433l-8.343-26.856-26.256-0.213c-8.767-0.071-16.521-5.704-19.298-14.020s0.035-17.477 7-22.803l22.048-16.857-8.34-27.692c-2.563-8.512 0.645-17.707 7.947-22.776 3.524-2.446 7.615-3.664 11.701-3.664 4.38 0 8.754 1.398 12.417 4.181l21.096 16.029 21.209-15.889c3.642-2.728 7.971-4.097 12.304-4.097 4.13 0 8.265 1.244 11.812 3.741 7.267 5.117 10.416 14.329 7.798 22.823l-8.517 27.643 21.945 17.036c6.925 5.375 9.67 14.554 6.835 22.849s-10.627 13.872-19.392 13.882l-26.278 0.032-8.534 26.79c-2.715 8.516-10.625 14.294-19.555 14.294v0zM348.364 798.094l13.063-41.078 41.274-0.047-33.183-25.733 12.704-41.184-33.575 25.168-33.413-25.401 12.402 41.277-33.341 25.485 41.264 0.333 12.806 41.18zM348.365 818.616c-0.023 0-0.044 0-0.066 0-8.962-0.028-16.869-5.87-19.53-14.428l-8.356-26.872-26.283-0.213c-8.768-0.071-16.522-5.705-19.299-14.021-2.777-8.317 0.036-17.479 7.003-22.803l22.066-16.869-8.318-27.686c-2.558-8.512 0.655-17.703 7.959-22.768 3.523-2.443 7.611-3.658 11.693-3.658 4.382 0 8.757 1.399 12.42 4.185l21.081 16.026 21.179-15.877c3.643-2.731 7.975-4.102 12.31-4.102 4.13 0 8.265 1.244 11.812 3.741 7.269 5.118 10.417 14.334 7.797 22.83l-8.52 27.618 21.965 17.034c6.929 5.374 9.678 14.554 6.844 22.851s-10.628 13.876-19.396 13.887l-26.285 0.030-8.52 26.792c-2.71 8.52-10.622 14.303-19.556 14.303v0zM673.379 799.15l13.048-41.064 41.26-0.066-33.164-25.733 12.701-41.175-33.564 25.171-33.438-25.419 12.428 41.28-33.357 25.482 41.252 0.349 12.834 41.175zM673.379 819.671c-0.019 0-0.038 0-0.057 0-8.96-0.025-16.869-5.861-19.535-14.415l-8.381-26.888-26.288-0.223c-8.768-0.074-16.519-5.711-19.293-14.028s0.042-17.479 7.010-22.801l22.069-16.86-8.333-27.68c-2.562-8.513 0.647-17.707 7.951-22.776 3.524-2.445 7.614-3.661 11.697-3.661 4.382 0 8.757 1.399 12.42 4.185l21.102 16.043 21.168-15.875c3.643-2.732 7.976-4.104 12.313-4.104 4.13 0 8.264 1.244 11.81 3.74 7.27 5.117 10.42 14.335 7.798 22.831l-8.519 27.614 21.951 17.034c6.925 5.374 9.672 14.552 6.839 22.847s-10.621 13.874-19.387 13.888l-26.274 0.042-8.509 26.78c-2.706 8.523-10.618 14.309-19.555 14.309v0zM792.449 672.063l13.071-41.040 41.282-0.077-33.187-25.69 12.701-41.202-33.578 25.16-33.409-25.408 12.405 41.276-33.349 25.482 41.274 0.361 12.79 41.139zM792.45 692.585c-0.024 0-0.048 0-0.072 0-8.96-0.031-16.865-5.872-19.525-14.429l-8.346-26.844-26.302-0.23c-8.765-0.076-16.515-5.713-19.289-14.029s0.042-17.475 7.009-22.798l22.069-16.863-8.319-27.682c-2.559-8.513 0.654-17.705 7.96-22.77 3.523-2.443 7.611-3.658 11.692-3.658 4.384 0 8.76 1.401 12.423 4.187l21.078 16.030 21.181-15.871c3.642-2.728 7.972-4.098 12.306-4.098 4.131 0 8.265 1.244 11.812 3.741 7.268 5.117 10.416 14.331 7.797 22.825l-8.516 27.626 21.955 16.996c6.934 5.367 9.692 14.546 6.863 22.847s-10.618 13.885-19.385 13.903l-26.311 0.050-8.528 26.774c-2.712 8.514-10.622 14.293-19.553 14.293v0zM836.896 501.614l13.056-41.062 41.244-0.039-33.172-25.762 12.694-41.16-33.564 25.124-33.409-25.385 12.428 41.299-33.379 25.458 41.29 0.364 12.811 41.163zM836.896 522.135c-0.022 0-0.041 0-0.063 0-8.961-0.027-16.869-5.866-19.532-14.422l-8.365-26.871-26.325-0.232c-8.769-0.077-16.519-5.718-19.29-14.038-2.77-8.321 0.052-17.481 7.026-22.799l22.077-16.838-8.332-27.689c-2.561-8.512 0.649-17.705 7.951-22.773 3.524-2.445 7.614-3.663 11.699-3.663 4.38 0 8.754 1.398 12.417 4.181l21.085 16.021 21.174-15.85c3.641-2.725 7.968-4.093 12.298-4.093 4.134 0 8.268 1.245 11.817 3.744 7.266 5.118 10.412 14.331 7.793 22.825l-8.514 27.605 21.969 17.061c6.923 5.377 9.668 14.558 6.829 22.851-2.838 8.294-10.63 13.87-19.397 13.877l-26.251 0.025-8.513 26.774c-2.706 8.517-10.619 14.302-19.554 14.302v0zM792.449 330.059l13.071-41.067 41.282-0.048-33.187-25.741 12.701-41.144-33.578 25.129-33.409-25.377 12.405 41.26-33.349 25.486 41.274 0.372 12.79 41.13zM792.45 350.58c-0.024 0-0.046 0-0.069 0-8.961-0.030-16.866-5.871-19.528-14.427l-8.346-26.837-26.308-0.238c-8.764-0.080-16.511-5.716-19.283-14.031s0.043-17.473 7.008-22.794l22.071-16.866-8.318-27.666c-2.559-8.511 0.652-17.702 7.953-22.768 3.524-2.445 7.614-3.661 11.697-3.661 4.379 0 8.752 1.398 12.414 4.18l21.088 16.019 21.191-15.858c3.64-2.724 7.967-4.091 12.296-4.091 4.135 0 8.272 1.246 11.82 3.747 7.265 5.12 10.408 14.335 7.787 22.827l-8.513 27.577 21.968 17.039c6.928 5.374 9.677 14.554 6.841 22.851s-10.628 13.875-19.396 13.885l-26.296 0.030-8.525 26.787c-2.71 8.516-10.621 14.296-19.553 14.296v0zM672.35 205.145l13.063-41.083 41.297-0.039-33.209-25.733 12.716-41.183-33.594 25.152-33.401-25.415 12.428 41.291-33.341 25.47 41.244 0.348 12.798 41.191zM672.352 225.666c-0.023 0-0.046 0-0.069 0-8.963-0.030-16.87-5.873-19.529-14.433l-8.354-26.886-26.264-0.222c-8.768-0.074-16.519-5.711-19.293-14.028s0.042-17.479 7.010-22.801l22.056-16.848-8.334-27.691c-2.562-8.514 0.65-17.711 7.956-22.777 3.523-2.443 7.611-3.658 11.693-3.658 4.385 0 8.763 1.402 12.428 4.19l21.075 16.036 21.195-15.869c3.641-2.726 7.968-4.094 12.299-4.094 4.134 0 8.271 1.246 11.819 3.746 7.266 5.12 10.411 14.336 7.788 22.83l-8.524 27.609 21.98 17.031c6.932 5.371 9.685 14.556 6.851 22.855-2.835 8.299-10.63 13.88-19.4 13.888l-26.303 0.025-8.52 26.795c-2.711 8.519-10.623 14.302-19.558 14.302v0zM511.881 159.618l13.086-41.075 41.238-0.055-33.158-25.749 12.693-41.16-33.589 25.152-33.412-25.408 12.405 41.284-33.331 25.485 41.256 0.365 12.814 41.16zM511.881 180.139c-0.023 0-0.047 0-0.069 0-8.959-0.030-16.863-5.868-19.525-14.422l-8.365-26.871-26.292-0.232c-8.764-0.077-16.511-5.713-19.285-14.027s0.040-17.472 7.002-22.795l22.059-16.866-8.322-27.695c-2.558-8.513 0.655-17.705 7.96-22.769 3.521-2.442 7.611-3.658 11.692-3.658 4.384 0 8.759 1.401 12.422 4.186l21.085 16.035 21.195-15.87c3.641-2.726 7.969-4.095 12.301-4.095 4.132 0 8.268 1.245 11.816 3.743 7.267 5.118 10.413 14.331 7.794 22.825l-8.513 27.605 21.953 17.048c6.922 5.376 9.667 14.554 6.831 22.848s-10.626 13.87-19.39 13.882l-26.259 0.035-8.539 26.803c-2.71 8.513-10.619 14.29-19.55 14.29v0zM347.359 206.168l13.059-41.052 41.252-0.046-33.162-25.704 12.696-41.199-33.575 25.137-33.404-25.393 12.428 41.277-33.364 25.485 41.252 0.357 12.816 41.136zM347.359 226.69c-0.020 0-0.041 0-0.061 0-8.96-0.026-16.866-5.863-19.531-14.417l-8.365-26.849-26.288-0.228c-8.767-0.076-16.517-5.713-19.29-14.030s0.044-17.477 7.011-22.799l22.076-16.863-8.332-27.675c-2.563-8.513 0.647-17.707 7.951-22.776 3.524-2.445 7.614-3.661 11.697-3.661 4.382 0 8.756 1.399 12.42 4.185l21.080 16.024 21.181-15.858c3.641-2.726 7.969-4.094 12.301-4.094 4.132 0 8.267 1.245 11.815 3.743 7.266 5.117 10.413 14.329 7.796 22.823l-8.516 27.632 21.941 17.006c6.93 5.371 9.682 14.554 6.848 22.852s-10.628 13.879-19.397 13.889l-26.263 0.030-8.515 26.768c-2.711 8.515-10.623 14.297-19.557 14.297v0zM230.269 331.13l13.059-41.059 41.279-0.069-33.187-25.734 12.7-41.16-33.582 25.153-33.402-25.385 12.428 41.269-33.364 25.501 41.274 0.349 12.794 41.135zM230.269 351.651c-0.023 0-0.044 0-0.066 0-8.961-0.028-16.869-5.87-19.53-14.427l-8.347-26.837-26.3-0.223c-8.767-0.074-16.517-5.709-19.292-14.025s0.040-17.476 7.004-22.8l22.081-16.877-8.333-27.671c-2.563-8.513 0.646-17.707 7.95-22.776 3.524-2.445 7.615-3.663 11.7-3.663 4.382 0 8.755 1.399 12.418 4.184l21.074 16.016 21.189-15.871c3.642-2.727 7.97-4.096 12.303-4.096 4.132 0 8.268 1.245 11.816 3.743 7.267 5.119 10.413 14.334 7.793 22.828l-8.514 27.592 21.966 17.034c6.928 5.371 9.678 14.55 6.846 22.847s-10.62 13.877-19.387 13.892l-26.297 0.044-8.52 26.783c-2.707 8.519-10.618 14.301-19.553 14.301v0zM186.858 503.727l13.089-41.040 41.264-0.089-33.208-25.708 12.731-41.201-33.586 25.152-33.428-25.409 12.435 41.284-33.351 25.509 41.254 0.325 12.801 41.176zM186.858 524.249c-0.026 0-0.050 0-0.076 0-8.959-0.033-16.861-5.874-19.521-14.429l-8.351-26.865-26.268-0.207c-8.768-0.069-16.522-5.7-19.301-14.016-2.78-8.315 0.032-17.477 6.995-22.804l22.074-16.885-8.341-27.691c-2.565-8.513 0.645-17.708 7.949-22.777 3.524-2.446 7.615-3.663 11.7-3.663 4.382 0 8.756 1.399 12.419 4.184l21.101 16.039 21.192-15.871c3.641-2.727 7.97-4.096 12.302-4.096 4.134 0 8.272 1.246 11.819 3.747 7.267 5.121 10.411 14.339 7.787 22.833l-8.533 27.62 21.967 17.005c6.932 5.367 9.69 14.545 6.863 22.844s-10.614 13.885-19.381 13.905l-26.303 0.057-8.544 26.787c-2.712 8.509-10.62 14.285-19.548 14.285v0zM233.3 676.329l13.074-41.078 41.252-0.050-33.187-25.718 12.719-41.191-33.586 25.16-33.413-25.423 12.413 41.288-33.341 25.485 41.274 0.361 12.794 41.167zM233.3 696.85c-0.024 0-0.047 0-0.071 0-8.962-0.031-16.868-5.873-19.527-14.432l-8.349-26.867-26.301-0.23c-8.765-0.076-16.514-5.712-19.288-14.028-2.774-8.315 0.041-17.474 7.005-22.797l22.065-16.865-8.326-27.695c-2.56-8.514 0.654-17.708 7.96-22.774 3.521-2.442 7.609-3.657 11.691-3.657 4.385 0 8.763 1.402 12.427 4.19l21.083 16.042 21.187-15.871c3.642-2.728 7.971-4.097 12.304-4.097 4.132 0 8.269 1.245 11.817 3.744 7.268 5.12 10.413 14.337 7.789 22.832l-8.528 27.617 21.958 17.017c6.931 5.371 9.684 14.553 6.851 22.852s-10.627 13.88-19.396 13.89l-26.268 0.032-8.53 26.799c-2.71 8.515-10.621 14.296-19.554 14.296v0zM389.753 535.414h244.495v-51.299h-244.495v51.299zM389.753 411.885h244.495v-51.299h-244.495v51.299zM512.828-32.444c-265.084 0-480.746 215.511-480.746 480.577s215.662 480.377 480.746 480.377c251.105 0 457.857-193.79 478.965-439.55h30.775c-4.343 54.613-17.245 107.485-38.538 157.821-25.758 60.895-62.629 115.714-109.591 162.672s-101.649 83.893-162.547 109.649c-63.058 26.67-130.032 40.225-199.063 40.225s-136.005-13.505-199.063-40.175c-60.898-25.756-115.587-62.616-162.547-109.574s-83.833-101.639-109.591-162.533c-26.671-63.053-40.194-130.022-40.194-199.049s13.524-135.995 40.195-199.049c25.758-60.894 62.629-115.579 109.591-162.536s101.649-83.826 162.547-109.582c63.057-26.668 130.032-40.191 199.063-40.191s136.005 13.522 199.062 40.191c60.898 25.757 115.587 62.624 162.547 109.583 46.961 46.957 83.833 101.912 109.591 162.806 21.291 50.335 34.195 103.208 38.538 157.821h-30.775c-21.108-245.76-227.859-439.484-478.965-439.484z" />
<glyph unicode="&#xe907;" glyph-name="icons_benefits_04" d="M655.36 426.425l-11.017 20.161c4.915 2.703 120.406 68.14 120.406 231.185 0 60.113-13.194 100.121-19.040 114.886h-306.5c-5.8-15.202-19.118-57.594-19.118-126.374 0-152.257 119.182-219.029 120.384-219.687l-11-20.172c-5.402 2.95-132.36 74.103-132.36 239.858 0 93.547 23.202 141.028 24.189 143.002 1.947 3.892 5.923 6.35 10.276 6.35h321.68c4.353 0 8.324-2.458 10.276-6.35 0.988-1.975 24.189-49.326 24.189-131.513 0-177.114-126.959-248.396-132.367-251.346zM672.841 80.365h-160.841c-19.005 0-34.466 15.46-34.466 34.466v22.977c0 19.005 15.46 34.466 34.466 34.466h160.841c19.005 0 34.466-15.46 34.466-34.466v-22.977c0-19.005-15.46-34.466-34.466-34.466zM512 149.297c-6.334 0-11.488-5.15-11.488-11.488v-22.977c0-6.34 5.155-11.488 11.488-11.488h160.841c6.34 0 11.488 5.15 11.488 11.488v22.976c0 6.34-5.15 11.488-11.488 11.488h-160.841zM649.863 379.069h45.955v-22.977h-45.955v22.977zM362.648 402.045h-45.955v22.977h41.197l54.079 54.076 16.245-16.245-57.443-57.443c-2.155-2.153-5.077-3.366-8.123-3.366zM316.694 149.297h-114.886c-6.344 0-11.488 5.139-11.488 11.488v252.749c0 6.344 5.145 11.488 11.488 11.488h114.886c6.344 0 11.488-5.145 11.488-11.488v-252.749c0.001-6.35-5.144-11.488-11.488-11.488zM213.297 172.273h91.909v229.772h-91.909v-229.772zM144.365 425.023h57.443v-22.977h-57.443v22.977zM144.365 172.273h57.443v-22.977h-57.443v22.977zM259.251 218.228h22.977v-22.977h-22.977v22.977zM695.817 287.159v22.977c12.666 0 22.977 10.305 22.977 22.977s-10.312 22.977-22.977 22.977v22.977c25.345 0 45.955-20.615 45.955-45.955s-20.61-45.955-45.955-45.955zM649.863 310.137h45.955v-22.977h-45.955v22.977zM672.841 356.091v22.977c12.666 0 22.977 10.305 22.977 22.977s-10.311 22.977-22.977 22.977h-172.329v22.976h172.329c25.345 0 45.955-20.615 45.955-45.955s-20.611-45.954-45.955-45.954zM661.352 149.297h-229.772c-1.784 0-3.545 0.415-5.139 1.212l-43.525 21.766h-31.757v22.977h34.466c1.784 0 3.545-0.415 5.139-1.212l43.525-21.766h227.063c12.666 0 22.977 10.311 22.977 22.977s-10.312 22.977-22.977 22.977v22.977c25.345 0 45.955-20.61 45.955-45.955s-20.61-45.955-45.955-45.955zM672.841 218.228h-22.977v22.977h22.977c12.666 0 22.977 10.305 22.977 22.977s-10.311 22.977-22.977 22.977v22.977c25.345 0 45.955-20.615 45.955-45.955-0.001-25.339-20.611-45.955-45.955-45.955zM649.863 574.374c-2.041 0-4.085 0.539-5.912 1.638l-51.531 30.92-51.531-30.92c-4.218-2.542-9.597-2.104-13.361 1.105-3.754 3.197-5.049 8.431-3.22 13.014l19.712 49.265-38.914 29.186c-3.955 2.967-5.571 8.128-4.005 12.824 1.564 4.69 5.951 7.854 10.899 7.854h49.667l20.083 50.224c1.75 4.359 5.969 7.219 10.67 7.219s8.92-2.86 10.669-7.219l20.083-50.224h49.667c4.948 0 9.334-3.164 10.893-7.854 1.571-4.696-0.044-9.857-4.005-12.824l-38.909-29.186 19.712-49.265c1.828-4.583 0.539-9.817-3.22-13.014-2.13-1.817-4.779-2.743-7.448-2.743zM592.42 631.817c2.041 0 4.095-0.545 5.912-1.638l28.195-16.918-10.311 25.776c-1.93 4.824-0.381 10.345 3.781 13.458l18.377 13.789h-22.977c-4.701 0-8.92 2.86-10.67 7.219l-12.307 30.78-12.307-30.78c-1.75-4.359-5.969-7.219-10.669-7.219h-22.977l18.377-13.789c4.162-3.113 5.711-8.633 3.781-13.458l-10.309-25.776 28.194 16.918c1.816 1.095 3.868 1.638 5.911 1.638zM682.691 442.088l-19.701 11.824c13.238 22.058 40.166 36.71 71.343 53.674 57.343 31.196 122.325 66.553 122.325 158.697v22.977h-22.977v-22.977h-22.977v34.466c0 6.344 5.138 11.488 11.488 11.488h45.955c6.35 0 11.488-5.145 11.488-11.488v-34.466c0-105.804-74.474-146.323-134.318-178.881-28.226-15.358-52.606-28.62-62.626-45.313zM502.149 442.088c-10.014 16.695-34.4 29.955-62.627 45.314-59.844 32.559-134.318 73.077-134.318 178.881v34.466c0 6.344 5.145 11.488 11.488 11.488h45.955c6.344 0 11.488-5.145 11.488-11.488v-34.466h-22.977v22.977h-22.977v-22.977c0-92.144 64.983-127.502 122.319-158.697 31.183-16.963 58.117-31.615 71.349-53.674l-19.699-11.825zM512.828-32.435c-265.084 0-480.746 215.516-480.746 480.581s215.662 480.37 480.746 480.37c251.105 0 457.857-193.797 478.965-439.557h30.775c-4.343 54.613-17.245 107.494-38.538 157.829-25.758 60.895-62.629 115.718-109.591 162.675s-101.649 83.895-162.547 109.651c-63.058 26.671-130.032 40.227-199.063 40.227s-136.005-13.505-199.063-40.175c-60.898-25.756-115.587-62.615-162.547-109.574-46.961-46.957-83.833-101.639-109.591-162.533-26.671-63.052-40.194-130.020-40.194-199.046s13.524-135.995 40.194-199.049c25.758-60.894 62.629-115.579 109.591-162.536 46.961-46.957 101.649-83.826 162.547-109.582 63.057-26.668 130.032-40.191 199.063-40.191s136.005 13.522 199.062 40.191c60.898 25.757 115.587 62.624 162.547 109.583 46.961 46.957 83.833 101.903 109.591 162.797 21.292 50.335 34.196 103.199 38.539 157.812h-30.775c-21.108-245.76-227.859-439.475-478.965-439.475z" />
<glyph unicode="&#xe908;" glyph-name="icons_can_01" d="M292.409 587.947h39.822v-20.48h-39.822v20.48zM292.409 546.987h39.822v-19.342h-39.822v19.342zM292.409 507.164h39.822v-19.342h-39.822v19.342zM292.409 467.342h39.822v-19.342h-39.822v19.342zM292.409 427.52h39.822v-19.342h-39.822v19.342zM292.409 387.698h39.822v-19.342h-39.822v19.342zM292.409 347.876h39.822v-20.48h-39.822v20.48zM292.409 308.053h39.822v-20.48h-39.822v20.48zM292.409 268.231h39.822v-20.48h-39.822v20.48zM233.244 726.756h19.342v-19.342h-19.342v19.342zM273.067 726.756h19.342v-19.342h-19.342v19.342zM311.751 726.756h20.48v-19.342h-20.48v19.342zM372.053 587.947h79.644v-20.48h-79.644v20.48zM372.053 546.987h139.947v-19.342h-139.947v19.342zM372.053 507.164h139.947v-19.342h-139.947v19.342zM531.342 507.164h100.124v-19.342h-100.124v19.342zM432.356 467.342h79.644v-19.342h-79.644v19.342zM531.342 467.342h60.302v-19.342h-60.302v19.342zM432.356 427.52h79.644v-19.342h-79.644v19.342zM531.342 427.52h100.124v-19.342h-100.124v19.342zM432.356 387.698h79.644v-19.342h-79.644v19.342zM531.342 387.698h79.644v-19.342h-79.644v19.342zM372.053 347.876h139.947v-20.48h-139.947v20.48zM372.053 308.053h139.947v-20.48h-139.947v20.48zM531.342 308.053h100.124v-20.48h-100.124v20.48zM531.342 268.231h60.302v-20.48h-60.302v20.48zM432.356 268.231h79.644v-20.48h-79.644v20.48zM651.947 308.053h39.822v-20.48h-39.822v20.48zM631.467 387.698h100.124v-19.342h-100.124v19.342zM551.822 169.244h-339.058v498.347h558.649v-79.644h19.342v178.631h-598.471v-617.813h359.538v20.48zM771.413 686.933h-399.36v60.302h399.36v-60.302zM351.573 747.236v-60.302h-138.809v60.302h138.809zM391.396 726.756h359.538v-19.342h-359.538v19.342zM750.933 587.947v59.164h-517.689v-458.524h318.578v20.48h-299.236v418.702h479.004v-39.822zM681.529 188.587h39.822v-19.342h-39.822v19.342zM681.529 527.644h39.822v-20.48h-39.822v20.48zM801.013 567.467h-199.466c-16.499 0-30.382-13.421-30.382-29.92v-9.902h20.48v9.902c0 5.503 4.399 9.44 9.902 9.44h199.467c5.503 0 10.223-3.938 10.223-9.44v-309.138h-240.072v-69.849c0-16.499 13.883-30.275 30.382-30.275h199.467c16.498 0 29.564 13.776 29.564 30.275v378.987c0 16.499-13.066 29.92-29.565 29.92zM811.236 158.56c0-5.503-4.72-9.795-10.223-9.795h-199.466c-5.503 0-9.902 4.292-9.902 9.795v50.507h219.591v-50.507zM610.987 467.342h70.542v-19.342h-70.542v19.342zM610.987 268.231h100.124v-20.48h-100.124v20.48zM512.828-32.444c-265.084 0-480.746 215.511-480.746 480.577s215.662 480.377 480.746 480.377c251.105 0 457.857-193.79 478.965-439.55h30.773c-4.343 54.613-17.245 107.485-38.538 157.821-25.758 60.895-62.629 115.714-109.591 162.672s-101.649 83.893-162.547 109.649c-63.057 26.67-130.031 40.225-199.062 40.225s-136.005-13.505-199.063-40.175c-60.898-25.756-115.587-62.616-162.547-109.574s-83.833-101.639-109.591-162.533c-26.671-63.053-40.194-130.022-40.194-199.049s13.524-135.995 40.195-199.049c25.758-60.894 62.629-115.579 109.591-162.536s101.649-83.826 162.547-109.582c63.057-26.668 130.032-40.191 199.063-40.191s136.005 13.522 199.063 40.191c60.898 25.757 115.587 62.624 162.547 109.583 46.961 46.957 83.833 101.912 109.591 162.806 21.29 50.335 34.194 103.208 38.537 157.821h-30.773c-21.109-245.76-227.86-439.484-478.966-439.484z" />
<glyph unicode="&#xe909;" glyph-name="icons_can_02" d="M193.422 209.067h119.467v19.342h-97.849v436.907h595.058v-436.907h-100.124v-19.342h119.467v556.373h-636.018v-556.373zM810.098 685.796h-436.907v59.164h436.907v-59.164zM352.711 744.96v-59.164h-137.671v59.164h137.671zM234.382 725.618h18.204v-20.48h-18.204v20.48zM273.067 725.618h19.342v-20.48h-19.342v20.48zM312.889 725.618h20.48v-20.48h-20.48v20.48zM392.533 725.618h397.084v-20.48h-397.084v20.48zM252.587 627.769h517.689v-359.538h-60.302v-19.342h79.644v398.222h-555.236v-398.222h78.507v19.342h-60.302zM273.067 607.289h119.467v-19.342h-119.467v19.342zM273.067 567.467h159.289v-21.618h-159.289v21.618zM273.067 527.644h100.124v-19.342h-100.124v19.342zM452.836 567.467h59.164v-21.618h-59.164v21.618zM532.48 567.467h98.987v-21.618h-98.987v21.618zM392.533 527.644h60.302v-19.342h-60.302v19.342zM273.067 487.822h79.644v-19.342h-79.644v19.342zM413.013 607.289h79.644v-19.342h-79.644v19.342zM697.57 351.182c-3.047 17.526-8.577 34.528-16.425 50.522-1.708 3.492-5.501 5.758-9.189 5.555l-39.854-1.101 13.379 37.614c1.3 3.661 0.349 7.751-2.445 10.458-12.835 12.447-27.251 22.964-42.871 31.254-3.444 1.819-7.636 1.475-10.71-0.902l-31.714-24.395-11.264 38.21c-1.097 3.735-4.279 6.485-8.14 7.029-20.074 2.833-33.034 2.833-53.107 0-3.856-0.544-7.043-3.293-8.14-7.029l-11.264-38.21-31.71 24.395c-3.095 2.371-7.266 2.722-10.716 0.902-15.615-8.29-30.041-18.806-42.871-31.254-2.79-2.707-3.746-6.796-2.445-10.458l13.384-37.614-39.855 1.101c-3.871 0.034-7.48-2.066-9.197-5.555-7.844-15.994-13.369-32.996-16.42-50.522-0.664-3.832 0.966-7.698 4.172-9.9l32.898-22.537-32.898-22.537c-3.207-2.202-4.837-6.068-4.172-9.9 3.052-17.526 8.577-34.528 16.42-50.522 1.717-3.492 5.321-5.758 9.197-5.555l39.855 1.101-13.384-37.614c-1.3-3.661-0.345-7.751 2.445-10.458 12.831-12.447 27.255-22.964 42.871-31.254 3.44-1.819 7.621-1.475 10.716 0.902l31.71 24.395 11.264-38.21c1.097-3.735 4.284-6.485 8.14-7.028 10.036-1.417 18.472-2.076 26.553-2.076s16.517 0.66 26.553 2.076c3.86 0.544 7.043 3.293 8.14 7.028l11.264 38.21 31.714-24.395c3.074-2.377 7.266-2.726 10.71-0.902 15.619 8.29 30.036 18.806 42.871 31.254 2.794 2.707 3.746 6.796 2.445 10.458l-13.379 37.614 39.854-1.101c3.872-0.373 7.481 2.063 9.189 5.555 7.848 15.994 13.378 32.996 16.425 50.522 0.67 3.832-0.971 7.698-4.171 9.9l-32.899 22.537 32.899 22.537c3.201 2.202 4.84 6.068 4.171 9.9zM637.303 326.943c-2.698-1.852-4.318-4.919-4.318-8.198s1.62-6.345 4.318-8.198l39.485-27.048c-2.435-11.419-6.044-22.546-10.798-33.228l-47.839 1.324c-3.123 0.077-6.374-1.445-8.305-4.089-1.93-2.653-2.425-6.083-1.329-9.168l16.056-45.141c-8.703-7.839-18.142-14.726-28.183-20.557l-38.030 29.255c-2.6 1.999-6.026 2.595-9.119 1.577-3.123-1.014-5.54-3.498-6.461-6.641l-13.529-45.898c-12.786-1.455-22.149-1.455-34.935 0l-13.528 45.898c-0.922 3.144-3.342 5.627-6.457 6.641-3.12 1.018-6.534 0.422-9.13-1.577l-38.026-29.255c-10.041 5.831-19.48 12.718-28.188 20.557l16.061 45.141c1.096 3.086 0.601 6.515-1.324 9.168-1.931 2.653-5.088 4.273-8.314 4.089l-47.834-1.324c-4.749 10.681-8.367 21.809-10.798 33.228l39.485 27.048c2.702 1.852 4.318 4.919 4.318 8.198s-1.616 6.345-4.318 8.198l-39.485 27.048c2.431 11.419 6.050 22.546 10.798 33.228l47.834-1.324c3.221-0.088 6.384 1.44 8.314 4.089 1.925 2.653 2.42 6.083 1.324 9.167l-16.061 45.142c8.707 7.839 18.148 14.726 28.188 20.557l38.026-29.255c2.595-1.993 6.010-2.576 9.13-1.577 3.114 1.015 5.534 3.498 6.457 6.641l13.528 45.898c12.786 1.455 22.149 1.455 34.935 0l13.529-45.898c0.922-3.144 3.338-5.626 6.461-6.641 3.095-0.999 6.519-0.418 9.119 1.577l38.030 29.255c10.041-5.83 19.48-12.718 28.183-20.557l-16.056-45.142c-1.096-3.085-0.601-6.514 1.329-9.167 1.922-2.649 5.161-4.284 8.305-4.089l47.839 1.324c4.754-10.681 8.363-21.809 10.798-33.228l-39.485-27.048zM511.785 418.089c-54.781 0-99.344-44.563-99.344-99.344s44.563-99.344 99.344-99.344c54.775 0 99.344 44.563 99.344 99.344s-44.569 99.344-99.344 99.344zM511.785 239.27c-43.822 0-79.475 35.653-79.475 79.475s35.653 79.475 79.475 79.475c43.822 0 79.475-35.653 79.475-79.475s-35.653-79.475-79.475-79.475zM511.785 378.351c-32.869 0-59.607-26.738-59.607-59.606s26.738-59.607 59.607-59.607 59.607 26.738 59.607 59.607c-0.001 32.869-26.739 59.606-59.607 59.606zM511.785 279.007c-21.911 0-39.738 17.827-39.738 39.738s17.827 39.738 39.738 39.738c21.916 0 39.738-17.827 39.738-39.738s-17.822-39.738-39.738-39.738zM512.828-32.435c-265.084 0-480.746 215.516-480.746 480.581s215.662 480.37 480.746 480.37c251.105 0 457.857-193.797 478.965-439.557h30.775c-4.343 54.613-17.245 107.494-38.538 157.829-25.758 60.895-62.629 115.718-109.591 162.675s-101.649 83.895-162.547 109.651c-63.058 26.671-130.032 40.227-199.063 40.227s-136.005-13.505-199.063-40.175c-60.898-25.756-115.587-62.615-162.547-109.574-46.961-46.957-83.833-101.639-109.591-162.533-26.671-63.052-40.194-130.020-40.194-199.046s13.524-135.995 40.194-199.049c25.758-60.894 62.629-115.579 109.591-162.536 46.961-46.957 101.649-83.826 162.547-109.582 63.057-26.668 130.032-40.191 199.063-40.191s136.005 13.522 199.062 40.191c60.898 25.757 115.587 62.624 162.547 109.583 46.961 46.957 83.833 101.903 109.591 162.797 21.292 50.335 34.196 103.199 38.539 157.812h-30.775c-21.108-245.76-227.859-439.475-478.965-439.475z" />
<glyph unicode="&#xe90a;" d="M194.156 130.151c4.476-4.477 10.342-6.714 16.209-6.714s11.734 2.238 16.209 6.714l285.431 285.43 285.43-285.43c4.476-4.477 10.342-6.714 16.209-6.714s11.734 2.238 16.209 6.714c8.952 8.952 8.952 23.467 0 32.419l-285.429 285.43 285.43 285.43c8.952 8.952 8.952 23.467 0 32.419-8.952 8.953-23.467 8.953-32.419 0l-285.43-285.43-285.43 285.43c-8.952 8.953-23.467 8.953-32.419 0-8.952-8.952-8.952-23.467 0-32.419l285.43-285.43-285.43-285.43c-8.952-8.952-8.952-23.466 0-32.419z" />
<glyph unicode="&#xe90b;" d="M983.177 646.236c-25.756 60.899-62.598 115.588-109.556 162.549s-101.631 83.833-162.525 109.592c-63.053 26.672-130.017 40.196-199.043 40.196s-135.995-13.524-199.049-40.196c-60.894-25.758-115.579-62.63-162.536-109.592-46.958-46.961-83.825-101.65-109.583-162.549-26.669-63.057-40.191-130.032-40.191-199.064s13.523-136.007 40.192-199.065c25.757-60.899 62.625-115.588 109.584-162.549 46.958-46.961 101.317-83.833 162.21-109.592 50.337-21.291 102.614-34.195 157.227-38.537v30.774c-245.762 21.108-438.891 227.861-438.891 478.969 0 265.086 215.811 480.751 480.879 480.751s479.935-215.664 479.935-480.751c0-251.108-194.24-457.861-440.002-478.969v-30.774c54.614 4.342 108.082 17.245 158.419 38.538 60.896 25.758 116.013 62.63 162.971 109.592s84.043 101.65 109.799 162.549c26.67 63.057 40.3 130.033 40.3 199.065s-13.469 136.005-40.139 199.063z" />
<glyph unicode="&#xe90c;" d="M199.2 689.216h625.608c12.609 0 22.832 10.147 22.832 22.756s-10.222 22.756-22.832 22.756h-625.608c-12.609 0-22.832-10.147-22.832-22.756s10.223-22.756 22.832-22.756z" />
<glyph unicode="&#xe90d;" d="M199.2 425.249h625.608c12.616 0 22.843 10.14 22.843 22.756s-10.226 22.756-22.843 22.756h-625.608c-12.616 0-22.843-10.14-22.843-22.756s10.226-22.756 22.843-22.756z" />
<glyph unicode="&#xe90e;" d="M824.809 207.931h-625.608c-12.616 0-22.843-10.709-22.843-23.325s10.226-23.325 22.843-23.325h625.608c12.616 0 22.843 10.709 22.843 23.325s-10.226 23.325-22.843 23.325z" />
<glyph unicode="&#xe90f;" d="M31.015 447.172c0 265.086 215.811 480.751 480.879 480.751s479.934-215.664 479.934-480.751c0-251.108-194.239-457.861-440.001-478.969v-30.774c54.614 4.343 108.082 17.245 158.419 38.538 60.896 25.758 116.013 62.63 162.971 109.592s84.043 101.65 109.799 162.549c26.67 63.057 40.3 130.033 40.3 199.065s-13.468 136.007-40.138 199.065c-25.756 60.899-62.598 115.588-109.556 162.549s-101.631 83.833-162.525 109.592c-63.055 26.67-130.018 40.193-199.046 40.193s-135.994-13.524-199.048-40.195c-60.894-25.758-115.579-62.63-162.536-109.592-46.958-46.961-83.825-101.65-109.583-162.549-26.67-63.058-40.191-130.033-40.191-199.065s13.523-136.007 40.191-199.065c25.757-60.899 62.625-115.588 109.584-162.549 46.958-46.961 101.317-83.833 162.211-109.592 50.337-21.291 102.614-34.195 157.227-38.538v30.774c-245.762 21.109-438.891 227.863-438.891 478.97z" />
<glyph unicode="&#xe910;" d="M534.1 801.23v-651.581l257.782 257.409c8.903 8.905 23.513 8.905 32.416 0 8.905-8.903 8.999-23.327 0.093-32.231l-296.273-296.319c-8.903-8.905-23.304-8.905-32.207 0l-296.308 296.319c-4.451 4.452-6.673 10.283-6.673 16.115s2.23 11.664 6.681 16.115c8.903 8.905 22.996 8.905 31.899 0l257.079-257.407v651.58c0 12.599 10.157 22.794 22.756 22.794s22.756-10.196 22.756-22.794z" />
<glyph unicode="&#xe911;" d="M31.246 447.156c0 265.084 215.683 480.746 480.749 480.746s480.118-215.662 480.118-480.746c0-251.105-194.048-457.857-439.808-478.965v-30.773c54.613 4.343 107.828 17.245 158.165 38.538 60.895 25.758 115.886 62.629 162.843 109.591s83.979 101.649 109.735 162.547c26.67 63.057 40.268 130.032 40.268 199.063s-13.484 136.005-40.153 199.063c-25.756 60.898-62.605 115.587-109.563 162.547s-101.633 83.833-162.528 109.591c-63.052 26.67-130.017 40.193-199.044 40.193s-135.994-13.524-199.047-40.194c-60.894-25.758-115.578-62.629-162.535-109.591s-83.825-101.649-109.582-162.547c-26.67-63.058-40.191-130.032-40.191-199.063s13.522-136.005 40.191-199.063c25.757-60.898 62.624-115.587 109.583-162.547 46.957-46.961 101.568-83.833 162.461-109.591 50.336-21.292 102.865-34.195 157.479-38.538v30.773c-245.761 21.109-439.14 227.86-439.14 478.966z" />
<glyph unicode="&#xe912;" glyph-name="icons_narrow_next" d="M611.403 872.859c-12.107 12.111-31.721 12.111-43.828 0-12.111-12.107-12.111-31.859 0-43.966l350.033-350.173h-886.043c-17.132 0-30.995-13.588-30.995-30.72s13.864-30.72 30.995-30.72h886.042l-350.032-350.174c-12.111-12.107-12.111-31.791 0-43.897 6.053-6.053 13.982-9.116 21.914-9.116s15.859 3.011 21.914 9.065l402.945 402.937c12.109 12.107 12.109 31.717 0 43.824l-402.944 402.939z" />
<glyph unicode="&#xe913;" glyph-name="icons_narrow_prev" d="M992.436 478.72h-886.043l350.032 350.174c12.111 12.107 12.111 31.79 0 43.897-12.106 12.111-31.72 12.145-43.828 0.034l-402.945-402.928c-12.109-12.107-12.109-31.712 0-43.819l402.945-402.942c6.054-6.053 13.983-9.079 21.914-9.079 7.933 0 15.861 3.030 21.914 9.083 12.111 12.107 12.111 31.86 0 43.967l-350.031 350.174h886.042c17.132 0 30.995 13.588 30.995 30.72s-13.863 30.72-30.994 30.72z" />
<glyph unicode="&#xe914;" d="M533.618 94.696v651.58l258.058-257.407c8.903-8.905 23.651-8.905 32.554 0 8.905 8.903 9.067 23.327 0.162 32.231l-296.239 296.319c-8.903 8.905-23.287 8.905-32.19 0l-296.299-296.319c-4.451-4.452-6.669-10.283-6.669-16.115 0-5.833 2.232-11.664 6.683-16.115 8.903-8.905 22.72-8.905 31.623 0l256.804 257.407v-651.581c0-12.599 10.157-22.794 22.756-22.794s22.756 10.197 22.756 22.795z" />
<glyph unicode="&#xe915;" d="M31.015 447.172c0 265.084 215.809 480.746 480.875 480.746s479.929-215.662 479.929-480.746c0-251.105-194.237-457.857-439.997-478.965v-30.775c54.613 4.343 108.081 17.245 158.417 38.538 60.895 25.758 116.012 62.629 162.97 109.591s84.042 101.649 109.798 162.547c26.67 63.057 40.3 130.032 40.3 199.062s-13.468 136.005-40.137 199.063c-25.756 60.898-62.597 115.587-109.555 162.547-46.957 46.961-101.63 83.833-162.524 109.591-63.055 26.672-130.017 40.195-199.044 40.195s-135.993-13.524-199.046-40.195c-60.894-25.758-115.578-62.629-162.535-109.591s-83.825-101.649-109.582-162.547c-26.67-63.057-40.191-130.031-40.191-199.062s13.522-136.005 40.191-199.062c25.757-60.898 62.624-115.587 109.583-162.547 46.957-46.961 101.316-83.833 162.21-109.591 50.336-21.292 102.613-34.196 157.226-38.539v30.775c-245.76 21.108-438.888 227.859-438.888 478.965z" />
<glyph unicode="&#xe916;" glyph-name="icons_quotes_01" d="M193.613 401.64c67.762 10.792 129.465-5.462 185.079-48.827 55.547-43.397 83.386-99.011 83.386-166.772 0-62.399-23.073-116.622-69.152-162.701-46.145-46.145-100.334-69.152-162.701-69.152-62.399 0-113.907 23.701-154.558 71.171-40.684 47.436-63.756 103.744-69.152 168.824-10.891 116.556-6.819 214.903 12.182 294.913 18.935 79.943 48.827 153.862 89.511 221.69 29.793 46.079 69.781 90.801 119.997 134.232 50.118 43.331 103.711 73.223 160.648 89.478 29.826 8.143 46.774 9.467 50.846 4.072 4.072-5.462 6.124-23.073 6.124-52.865v-44.755c0-32.541-2.053-52.237-6.124-58.989-4.072-6.786-21.021-15.624-50.846-26.449-59.685-21.716-107.154-62.399-142.342-122.017-35.287-59.686-52.898-136.981-52.898-231.854zM754.971 401.64c67.729 10.792 129.465-5.462 185.079-48.827 55.547-43.397 83.386-99.011 83.386-166.772 0-62.399-23.073-116.622-69.152-162.701-46.145-46.145-100.368-69.152-162.734-69.152-62.399 0-113.874 23.701-154.558 71.171-40.684 47.436-63.756 103.744-69.152 168.824-10.858 116.556-6.786 214.903 12.215 294.913 18.935 79.943 48.794 153.862 89.478 221.69 29.826 46.079 69.781 90.801 119.997 134.232 50.151 43.331 103.711 73.223 160.681 89.478 29.793 8.143 46.774 9.467 50.846 4.072 4.072-5.462 6.091-23.073 6.091-52.865v-44.755c0-32.541-2.020-52.237-6.091-58.989-4.072-6.786-21.054-15.624-50.846-26.449-59.685-21.716-107.154-62.399-142.375-122.017-35.287-59.686-52.865-136.981-52.865-231.854z" />
<glyph unicode="&#xe917;" glyph-name="icons_quotes_02" d="M269.045 494.385c-67.798-10.891-129.505 5.397-185.087 48.796-55.615 43.365-83.389 98.981-83.389 166.778 0 62.369 23.007 116.593 69.154 162.74 46.081 46.081 100.306 69.154 162.74 69.154 62.336 0 113.878-23.802 154.564-71.207 40.685-47.472 63.693-103.716 69.154-168.799 10.792-116.66 6.72-214.98-12.215-294.927-19.002-80.013-48.796-153.935-89.481-221.699-29.86-46.147-69.85-90.904-120.003-134.238-50.219-43.433-103.716-73.227-160.688-89.514-29.86-8.11-46.777-9.535-50.849-4.039-4.072 5.397-6.092 23.007-6.092 52.868v44.757c0 32.542 2.020 52.172 6.092 58.959 4.072 6.753 20.989 15.592 50.849 26.45 59.621 21.684 107.093 62.369 142.382 122.056 35.222 59.622 52.867 136.888 52.867 231.864zM830.429 494.385c-67.831-10.891-129.538 5.397-185.087 48.796-55.615 43.367-83.39 98.983-83.39 166.78 0 62.369 23.007 116.593 69.154 162.74 46.081 46.081 100.306 69.154 162.707 69.154 62.369 0 113.913-23.802 154.564-71.207 40.685-47.472 63.693-103.716 69.154-168.799 10.825-116.66 6.753-214.98-12.182-294.927-19.002-80.013-48.829-153.935-89.514-221.699-29.86-46.147-69.85-90.904-120.003-134.238-50.186-43.433-103.716-73.227-160.655-89.514-29.893-8.11-46.777-9.535-50.849-4.039-4.072 5.397-6.125 23.007-6.125 52.868v44.757c0 32.542 2.053 52.172 6.125 58.959 4.072 6.753 20.955 15.592 50.849 26.45 59.621 21.684 107.093 62.369 142.349 122.056 35.223 59.621 52.901 136.887 52.901 231.863z" />
<glyph unicode="&#xe918;" glyph-name="icons_search" d="M764.25 574.701c0 210.701-171.416 382.125-382.125 382.125s-382.125-171.426-382.125-382.125 171.415-382.125 382.125-382.125c210.71-0.001 382.125 171.424 382.125 382.125zM382.125 230.788c-189.627 0-343.913 154.277-343.913 343.913s154.287 343.913 343.913 343.913c189.625 0 343.913-154.277 343.913-343.913s-154.287-343.913-343.913-343.913zM314.059 833.446c-117.416-30.824-199.421-137.222-199.421-258.745 0-46.973 12.371-93.199 35.749-133.689 3.544-6.12 9.964-9.544 16.569-9.544 3.246 0 6.531 0.821 9.535 2.566 9.142 5.28 12.278 16.961 6.996 26.103-20.039 34.676-30.637 74.299-30.637 114.563 0 104.169 70.286 195.363 170.911 221.784 10.207 2.677 16.307 13.127 13.62 23.332-2.65 10.207-13.155 16.308-23.323 13.631zM782.441 301.241c-21.569 21.588-59.482 21.588-81.051 0l-40.546-40.545c-22.336-22.343-22.336-58.708 0-81.053l219.311-219.301c13.248-13.256 33.604-21.168 54.446-21.168 10.3 0 20.244 2.016 28.753 5.831l3.227 1.437 49.072 49.061 1.437 3.22c11.754 26.28 5.019 62.824-15.336 83.198l-219.313 219.32zM983.263 17.167l-38.342-38.342c-11.718-3.602-29.537 0.336-37.746 8.537l-219.311 219.301c-7.446 7.446-7.446 19.572 0 27.018l40.544 40.544c3.582 3.582 8.377 5.552 13.51 5.552 5.13 0 9.926-1.969 13.508-5.552l219.311-219.32c8.563-8.564 12.258-25.729 8.527-37.737z" />
</font>
</defs>
</svg>
